<svg xmlns="http://www.w3.org/2000/svg" width="24" height="24" fill="none" id="youtube-gaming"><path fill="#000" fill-rule="evenodd" d="M5.252 4.566a.5.5 0 0 1 .485-.006L12 7.932l6.263-3.372a.5.5 0 0 1 .485.006l3.5 2A.5.5 0 0 1 22.5 7v7.5a.5.5 0 0 1-.295.456l-10 4.5a.5.5 0 0 1-.41 0l-10-4.5A.5.5 0 0 1 1.5 14.5V7a.5.5 0 0 1 .252-.434l3.5-2Zm.255 1.006L2.5 7.29v6.887l9.5 4.275 9.5-4.275V7.29l-3.007-1.718-6.256 3.368a.5.5 0 0 1-.474 0L5.507 5.572Z" clip-rule="evenodd"></path><path fill="#000" fill-rule="evenodd" d="M9.5 12h-5v-1h5v1Z" clip-rule="evenodd"></path><path fill="#000" fill-rule="evenodd" d="M7.5 9v5h-1V9h1zm10 4.5h-2v-1h2v1zm2-3h-2v-1h2v1z" clip-rule="evenodd"></path></svg>